<?xml version="1.0" encoding="UTF-8"?>
<svg xmlns="http://www.w3.org/2000/svg" xmlns:xlink="http://www.w3.org/1999/xlink" width="134px" height="26px" viewBox="0 0 134 26" version="1.1">
<g id="surface1">
<path style=" stroke:none;fill-rule:nonzero;fill:rgb(9.411765%,56.078431%,100%);fill-opacity:1;" d="M 36.582031 8.285156 L 27.640625 8.285156 C 25.222656 3.621094 22.667969 0 19.191406 0 C 14.664062 0 12.535156 3.976562 10.476562 7.847656 L 10.296875 8.183594 L 0 8.183594 L 0 10.484375 L 5.996094 10.484375 C 8.113281 10.484375 8.546875 11.203125 8.546875 11.203125 C 6.882812 13.796875 4.886719 16.359375 1.558594 16.359375 L 0 16.359375 L 0 18.773438 L 1.570312 18.773438 C 8.023438 18.773438 10.84375 13.507812 13.105469 9.277344 C 15.179688 5.378906 16.625 3.019531 19.191406 3.019531 C 21.855469 3.019531 24.652344 8.847656 27.117188 13.996094 C 27.480469 14.742188 27.84375 15.511719 28.214844 16.269531 C 18.765625 16.574219 14.261719 18.800781 10.597656 20.617188 C 7.917969 21.941406 5.800781 23.589844 2.316406 23.589844 L 0 23.589844 L 0 26.003906 L 2.296875 26.003906 C 6.496094 26.003906 9.109375 24.699219 11.890625 23.320312 C 15.75 21.414062 20.121094 19.25 30.421875 19.25 L 36.378906 19.25 L 36.378906 16.839844 L 33.015625 16.839844 C 32.453125 16.878906 31.90625 16.65625 31.53125 16.234375 C 30.945312 15.089844 30.371094 13.882812 29.804688 12.675781 L 29.027344 11.070312 C 29.027344 11.070312 29.582031 10.464844 31.132812 10.464844 L 36.582031 10.464844 Z M 36.582031 8.285156 "/>
<path style=" stroke:none;fill-rule:nonzero;fill:rgb(27.45098%,30.588235%,33.72549%);fill-opacity:1;" d="M 47.875 8.269531 L 41.644531 8.269531 L 41.644531 10.527344 L 47.738281 10.527344 C 50.257812 10.527344 51.703125 11.679688 51.703125 13.742188 C 51.703125 15.699219 50.105469 16.957031 47.640625 16.957031 L 41.644531 16.957031 L 41.644531 24.804688 L 44.042969 24.804688 L 44.042969 19.191406 L 47.597656 19.191406 C 50.851562 19.191406 54.125 17.484375 54.125 13.628906 C 54.105469 10.367188 51.660156 8.269531 47.875 8.269531 Z M 47.875 8.269531 "/>
<path style=" stroke:none;fill-rule:nonzero;fill:rgb(27.45098%,30.588235%,33.72549%);fill-opacity:1;" d="M 67.953125 17.847656 C 67.953125 21.050781 66.359375 22.816406 63.46875 22.816406 C 60.578125 22.816406 58.910156 20.964844 58.910156 17.730469 L 58.910156 8.269531 L 56.511719 8.269531 L 56.511719 17.847656 C 56.511719 22.304688 59.148438 25.085938 63.402344 25.085938 C 67.652344 25.085938 70.335938 22.328125 70.335938 17.707031 L 70.335938 8.269531 L 67.9375 8.269531 Z M 67.953125 17.847656 "/>
<path style=" stroke:none;fill-rule:nonzero;fill:rgb(27.45098%,30.588235%,33.72549%);fill-opacity:1;" d="M 76.363281 8.269531 L 73.980469 8.269531 L 73.980469 24.828125 L 85.292969 24.828125 L 85.292969 22.566406 L 76.363281 22.566406 Z M 76.363281 8.269531 "/>
<path style=" stroke:none;fill-rule:nonzero;fill:rgb(27.45098%,30.588235%,33.72549%);fill-opacity:1;" d="M 93.96875 15.390625 C 90.527344 14.648438 89.898438 13.863281 89.898438 12.53125 C 89.898438 11.195312 91.15625 10.261719 92.957031 10.261719 C 94.570312 10.261719 96.132812 10.855469 97.34375 11.925781 L 97.585938 12.117188 L 99 10.261719 L 98.777344 10.078125 C 97.171875 8.710938 95.121094 7.988281 93.015625 8.050781 C 89.824219 8.050781 87.511719 10.007812 87.511719 12.753906 C 87.511719 15.804688 89.734375 16.921875 93.070312 17.652344 C 96.402344 18.382812 96.960938 19.125 96.960938 20.441406 C 96.960938 21.863281 95.628906 22.855469 93.71875 22.855469 C 91.695312 22.855469 90.179688 22.25 88.476562 20.671875 L 88.246094 20.464844 L 86.753906 22.246094 L 86.96875 22.4375 C 88.773438 24.15625 91.167969 25.101562 93.652344 25.070312 C 97.015625 25.070312 99.359375 23.089844 99.359375 20.242188 C 99.367188 17.660156 97.753906 16.214844 93.96875 15.390625 Z M 93.96875 15.390625 "/>
<path style=" stroke:none;fill-rule:nonzero;fill:rgb(27.45098%,30.588235%,33.72549%);fill-opacity:1;" d="M 108.0625 8.152344 L 100.566406 24.828125 L 103.046875 24.828125 L 104.933594 20.605469 L 113.183594 20.605469 L 115.042969 24.828125 L 117.617188 24.828125 L 110.121094 8.152344 Z M 105.898438 18.414062 L 109.070312 11.292969 L 112.222656 18.414062 Z M 105.898438 18.414062 "/>
<path style=" stroke:none;fill-rule:nonzero;fill:rgb(27.45098%,30.588235%,33.72549%);fill-opacity:1;" d="M 129.046875 18.195312 C 131.617188 17.59375 133.136719 15.78125 133.136719 13.300781 C 133.164062 12.050781 132.691406 10.84375 131.828125 9.945312 C 130.535156 8.78125 128.839844 8.179688 127.109375 8.261719 L 119.992188 8.261719 L 119.992188 24.828125 L 122.390625 24.828125 L 122.390625 18.617188 L 126.480469 18.617188 L 131.078125 24.820312 L 134.019531 24.820312 Z M 122.367188 16.386719 L 122.367188 10.527344 L 126.964844 10.527344 C 129.363281 10.527344 130.730469 11.5625 130.730469 13.421875 C 130.730469 15.28125 129.246094 16.441406 126.949219 16.441406 Z M 122.367188 16.386719 "/>
</g>
</svg>
